<?xml version="1.0" encoding="UTF-8"?>
<svg version="1.1" viewBox="0 0 2000 2000" width="1280" height="1280" xmlns="http://www.w3.org/2000/svg">
<path transform="translate(882,623)" d="m0 0 5 1 17 13 14 11 17 14 15 12 1 5-8 44-2 8 11-7 18-13 20-14 17-12 18-13 19-13 15-11 12-8 4 1 8 11 14 20 10 15 14 20 11 18-2 13-15 73-12 56-10 49-10 47-20 98-12 57-2 11 9-2 21-8 37-14 82-32 34-13 29-11 15-6h2l1-9 6-34 8-46-16 10-17 12-23 16-12 8-35 24-17 12-12 8-4-1-6-9-12-21-13-23-16-28-3-6v-7l14-58 33-143 5-18 12-12 14-11 14-12 10-8 14-12 11-9 13-11 11-9 13-11 9-7 5 1 11 17 16 26 15 24 13 20 3 5 2 1 2-11 11-47 3-9 9-4 47-15 34-10 11-1v7l-9 39-9 38-10 44-10 41-11 48-21 89-19 80-17 74-3 9-12 3-89 16-84 15-69 12-42 8-44 8h-7l-2-3 1-5 8-4 16-6-1-6-8-16-16-33-13-28-17-35v-8l6-23 27-111 9-38 15-60 6-25 3-12-26 7-46 13-32 9-2 1-8 45-9 48-12 65-13 70-5 28-3 8-3 1-5-4-16-24-34-50-12-18-1-2v-7l11-52 16-72 11-50 10-47 17-79 3-9zm373 110-7 21-8 26-17 56-21 67-10 33v3l17-4 74-19 18-5 5-21 13-68 3-14v-5l-7-7-7-8-9-10-7-7-7-8-28-30z" fill="#F5C90B"/>
<path transform="translate(595,669)" d="m0 0h219l2 2 1 18 3 107 1 28v14l-5 3-66 15-63 14-50 11-14 51-2 10 66 33 19 10 54 27 19 10 34 17 19 10 13 7 2 4-1 3-2 1-14-1-203-30-39-6-6-3-11-15-10-14-14-19-12-16-1-2v-8l15-73 25-123 14-69 3-12zm81 65-2 5-11 42-17 62-1 7 8-4 14-10 20-14 17-12 18-13 17-12 6-5v-33l-13-3-44-8z" fill="#F6CA0B"/>
<path transform="translate(882,623)" d="m0 0 5 1 17 13 14 11 17 14 15 12 1 5-8 44-2 8 11-7 18-13 20-14 17-12 18-13 19-13 15-11 12-8 4 1 8 11 14 20 10 15 14 20 11 18-2 13-15 73-12 56-10 49-10 47-20 98-12 57-2 11 9-2 21-8 37-14 82-32 34-13 29-11 15-6h2l1-9 6-34 8-46-16 10-17 12-23 16-12 8-35 24-17 12-12 8-4-1-6-9-12-21-13-23-16-28-3-6v-7l14-58 33-143 5-18 12-12 14-11 14-12 10-8 14-12 11-9 13-11 11-9 13-11 9-7 5 1 11 17 16 26 15 24 13 20 3 5 2 1 2-11 11-47 3-9 9-4 47-15 34-10 11-1v7l-9 39-9 38-10 44-10 41-11 48-21 89-19 80-17 74-3 9-12 3-89 16-84 15-69 12-42 8-44 8h-7l-2-3 1-5 8-4 16-6-1-6-8-16-16-33-13-28-17-35v-8l6-23 27-111 9-38 15-60 6-25 3-12-26 7-46 13-32 9-2 1-8 45-9 48-12 65-13 70-5 28-3 8-3 1-5-4-16-24-34-50-12-18-1-2v-7l11-52 16-72 11-50 10-47 17-79 3-9zm575 4-9 4-19 7-20 6-9 3-21 6-12 4-3 3-5 19-2 12-7 28-2 15-5-3-7-11-7-10-8-14-10-16-6-10-8-15h-2l-2-6-3-5-3-7-3-4-4 1-10 8-16 13-13 11-10 8-11 9-13 11-11 9-9 8-11 9-10 8-5 7-4 21-3 13-1 7-2 6-4 16-1 9-3 9-2 11-4 16-3 15-4 13-6 30-3 12-4 18-2 6-1 9-1 2v6l4 9 3 1v6l2 3h3l-1 7 5 5h2v6l4 4 2 6 2 2 2 5 4 8 8 15 4 7 5 2 7-6 30-21 12-8 19-13 15-10 11-8 6-4 20-14 12-9 5-2-5 35-3 12-6 41-1 11-4 2-15 7-31 12-16 6-21 8-32 12-62 24-13 6-30 12-13 4h-7l3-4 4-13 2-10 4-19 3-15 3-12 2-10 2-9 1-10 3-10 2-14 2-7 4-19 2-14 2-7 3-14 2-18 2-3 3-16 2-12 1-9 2-4 2-10 3-17 1-7 2-7 3-13 1-1 2-15 3-10 4-20 2-11 3-15 3-13 3-16v-10l-5-9-3-2-1-3h-2l-1-5-5-6h-2v-4h-2l-2-5-6-10-7-11-14-21-4-3-15 11-18 12v2l-4 1-9 7-9 6-14 10-11 7-13 10-12 9-10 8-10 7-8 5-3 1v-6l2-9 3-17 1-3 2-18 3-7-3-5-2-3h-3l-2-4-14-11-4-3h-2v-2l-11-9-3-1v-2l-9-6-5-5-4-1-2 4-2 10-4 17-3 11-1 9-3 11-1 9-3 8-3 16-8 37-3 16-4 16-4 25-1 2-2 14-2 7-1 8-3 8-6 24-3 19-3 12-1 8-2 3-1 14 3 7 6 10 5 7 4 1v5l3 3 3 5 1 6 3 1 2 4h2l2 7 7 9 5 8 4 7h2l1 5h2l1 5 1 2h7l4-18 4-21 2-14 1-1 2-22h2l2-17 2-6 5-27 1-10 3-11 2-14 2-8 2-18 2-6 2-15 1-1 2-16 3-10 2-17 2-6 7-3 22-6 4-2 9-2 5-2 9-2 4-2 10-2 5-2 12-3 18-4 3-2 7-1-2 13-6 21-4 20-3 8-2 12-2 4-2 12-3 9-1 6-2 6-5 22-3 9-3 16-18 72-4 20-4 16-2 6v8l4 13 8 17 7 14 5 12h2l1 4 4 11 3 5 3 8 8 16 7 16 2 3v6h-6l1 5 6-1 5 1 16-3 9-2 47-9 51-9 59-10 49-9 61-10 15-3 4-3 4-13 5-25 10-40 3-16 4-16 9-37 12-51 7-32 4-16 9-37 7-31 11-44 6-27 10-42 5-27 1-8z" fill="#D1A71A"/>
<path transform="translate(595,669)" d="m0 0h219l2 2 1 18 3 107 1 28v14l-5 3-66 15-63 14-50 11-14 51-2 10 66 33 19 10 54 27 19 10 34 17 19 10 13 7 2 4-1 3-2 1-14-1-203-30-39-6-6-3-11-15-10-14-14-19-12-16-1-2v-8l15-73 25-123 14-69 3-12zm1 4-3 6-5 26-5 25-3 16-5 25-3 17-2 7-2 13-2 11-4 16-3 16-1 2-2 14-6 28-5 26-3 13-2 12v12l2 4 5 5 3 4h1l1 5 4 2 1 3h2l2 4 2 2 1 5h3l2 5 3 3 1 3h2v5l4 4 1 3 6 5 11 3 6 2 27 3 28 4 16 2 15 3 20 3 28 4 13 2 21 3 16 2 17 3 19 4 10 1v-2h6l-1-2-8-4-6-2-17-8-5-3-17-8-6-3-14-8-16-8-15-8-7-3-12-6-19-9-19-10-19-9-17-9-8-3h-3v-2l-9-4-4-3h-2l2-9 5-14 8-31 3-10v-2l27-7 25-6 22-5 39-8 30-7 16-4 17-4 6-2v-69l-1-35-2-34v-24l-1-1z" fill="#D1A719"/>
<path transform="translate(1253,726)" d="m0 0 4 1 3 1 4 4 2 1v3l3 1 11 11v3l4 2 1 3 4 2 5 5v2l3 1 5 6 6 5 6 7 6 5 2 5 3 2 3 5-1 10-3 11-3 16-5 25-2 14-5 26-2 9h-2v2h-2v2l-11 3-6 2-26 7-16 4-51 12-7 1-1-2 5-12 5-17 5-15 9-29 7-23 1-4 3-8 9-29 5-17 1-9 2-2 6-19 2-7 3-10 2-8zm2 7-7 21-8 26-17 56-21 67-10 33v3l17-4 74-19 18-5 5-21 13-68 3-14v-5l-7-7-7-8-9-10-7-7-7-8-28-30z" fill="#D1A719"/>
<path transform="translate(673,729)" d="m0 0 17 2 22 3 6 2 13 2 6 2 11 2 3 3-1 37-9 7-10 7-7 5h-2v2l-10 6-10 7-19 13-11 8-13 10-17 13-5 1 1-4 18-63 11-41 3-16 1-7zm3 5-2 5-11 42-17 62-1 7 8-4 14-10 20-14 17-12 18-13 17-12 6-5v-33l-13-3-44-8z" fill="#D1A719"/>
</svg>
